<?xml version="1.0" encoding="UTF-8" standalone="no"?>
<!-- Created with Inkscape (http://www.inkscape.org/) -->

<svg
   xmlns:dc="http://purl.org/dc/elements/1.1/"
   xmlns:cc="http://creativecommons.org/ns#"
   xmlns:rdf="http://www.w3.org/1999/02/22-rdf-syntax-ns#"
   xmlns:svg="http://www.w3.org/2000/svg"
   xmlns="http://www.w3.org/2000/svg"
   xmlns:xlink="http://www.w3.org/1999/xlink"
   xmlns:sodipodi="http://sodipodi.sourceforge.net/DTD/sodipodi-0.dtd"
   xmlns:inkscape="http://www.inkscape.org/namespaces/inkscape"
   width="744.09448819"
   height="1052.3622047"
   id="svg2"
   version="1.1"
   inkscape:version="0.46+devel"
   sodipodi:docname="qxrd-icon2.svg">
  <defs
     id="defs4">
    <inkscape:perspective
       sodipodi:type="inkscape:persp3d"
       inkscape:vp_x="0 : 526.18109 : 1"
       inkscape:vp_y="0 : 1000 : 0"
       inkscape:vp_z="744.09448 : 526.18109 : 1"
       inkscape:persp3d-origin="372.04724 : 350.78739 : 1"
       id="perspective10" />
    <inkscape:perspective
       id="perspective3717"
       inkscape:persp3d-origin="0.5 : 0.33333333 : 1"
       inkscape:vp_z="1 : 0.5 : 1"
       inkscape:vp_y="0 : 1000 : 0"
       inkscape:vp_x="0 : 0.5 : 1"
       sodipodi:type="inkscape:persp3d" />
  </defs>
  <sodipodi:namedview
     id="base"
     pagecolor="#ffffff"
     bordercolor="#666666"
     borderopacity="1.0"
     inkscape:pageopacity="0.0"
     inkscape:pageshadow="2"
     inkscape:zoom="1"
     inkscape:cx="26.09288"
     inkscape:cy="440.45552"
     inkscape:document-units="px"
     inkscape:current-layer="layer1"
     showgrid="false"
     inkscape:window-width="1453"
     inkscape:window-height="1025"
     inkscape:window-x="124"
     inkscape:window-y="104"
     inkscape:window-maximized="0" />
  <metadata
     id="metadata7">
    <rdf:RDF>
      <cc:Work
         rdf:about="">
        <dc:format>image/svg+xml</dc:format>
        <dc:type
           rdf:resource="http://purl.org/dc/dcmitype/StillImage" />
        <dc:title></dc:title>
      </cc:Work>
    </rdf:RDF>
  </metadata>
  <g
     inkscape:label="Layer 1"
     inkscape:groupmode="layer"
     id="layer1">
    <rect
       style="fill:#000080;fill-rule:evenodd;stroke:#000000;stroke-width:1px;stroke-linecap:butt;stroke-linejoin:miter;stroke-opacity:1"
       id="rect2818"
       width="80"
       height="80"
       x="74.493866"
       y="751.40692" />
    <path
       sodipodi:type="arc"
       style="fill:#000000;fill-opacity:1"
       id="path3627"
       sodipodi:cx="119.78614"
       sodipodi:cy="582.15686"
       sodipodi:rx="29.201599"
       sodipodi:ry="43.504421"
       d="m 119.78614,538.65244 a 29.201599,43.504421 0 1 1 -0.21863,87.00762 l 0.21863,-43.5032 z"
       sodipodi:start="4.7123891"
       sodipodi:end="7.8614686"
       transform="matrix(1.3210082,0,0,0.91384629,206.55312,217.60079)" />
    <path
       sodipodi:type="arc"
       style="fill:#000000;fill-opacity:1"
       id="path3639"
       sodipodi:cx="119.78614"
       sodipodi:cy="582.15686"
       sodipodi:rx="29.201599"
       sodipodi:ry="43.504421"
       d="m 119.78614,538.65244 a 29.201599,43.504421 0 1 1 -0.21863,87.00762 l 0.21863,-43.5032 z"
       sodipodi:start="4.7123891"
       sodipodi:end="7.8614686"
       transform="matrix(1.3210082,0,0,0.91384629,129.07949,255.74166)" />
    <g
       id="g3725"
       transform="translate(-43.21457,137.71742)">
      <g
         transform="translate(28.605646,79.401211)"
         id="g3631">
        <rect
           y="467.14478"
           x="210.58858"
           height="79.064629"
           width="39.305176"
           id="rect3625"
           style="fill:#00ff00;fill-rule:evenodd;stroke:#000000;stroke-width:0.69682866px;stroke-linecap:butt;stroke-linejoin:miter;stroke-opacity:1" />
        <path
           style="fill:#000000;fill-opacity:1;stroke:#000000;stroke-width:0.67220819px;stroke-linecap:butt;stroke-linejoin:miter;stroke-opacity:1"
           d="m 212.21692,466.89391 37.68914,79.32779 c 0,0 -39.87401,0 -39.32779,0 l 38.78157,-79.32779 -37.14292,0 z"
           id="path2826"
           sodipodi:nodetypes="ccccc" />
      </g>
      <g
         transform="translate(0,-0.59930692)"
         id="g3643">
        <rect
           y="546.90674"
           x="199.13855"
           height="79.064629"
           width="39.305176"
           id="rect3637"
           style="fill:#00ff00;fill-rule:evenodd;stroke:#000000;stroke-width:0.69682866px;stroke-linecap:butt;stroke-linejoin:miter;stroke-opacity:1" />
        <g
           id="g3610"
           transform="matrix(0.99539687,0,0,1.0032898,0.91506287,-82.323939)"
           style="fill:#000000">
          <path
             id="path2816"
             d="m 238.66058,666.68811 c 0,21.84475 -8.85433,39.55343 -19.77671,39.55343 -10.92238,0 -19.77672,-17.70868 -19.77672,-39.55343 0,-21.84476 8.85434,-39.55343 19.77672,-39.55343 10.92238,0 19.77671,17.70867 19.77671,39.55343 z"
             style="fill:#000000;fill-rule:evenodd;stroke:#000000;stroke-width:0.63154674px;stroke-linecap:butt;stroke-linejoin:miter;stroke-opacity:1" />
          <path
             id="rect3600"
             d="m 218.71401,666.62859 20.26234,0 0,39.92872 -20.26234,0 0,-39.92872 z"
             style="fill:#000000;fill-opacity:1" />
        </g>
      </g>
      <g
         transform="matrix(0.9826294,0,0,0.98830783,-31.410531,-75.331834)"
         id="g3619">
        <rect
           style="fill:#00ff00;fill-rule:evenodd;stroke:#000000;stroke-width:0.70710677px;stroke-linecap:butt;stroke-linejoin:miter;stroke-opacity:1"
           id="rect2822"
           width="40"
           height="80"
           x="353.50082"
           y="629.237" />
        <path
           transform="matrix(1.3443606,0,0,0.92465754,192.43844,130.57199)"
           sodipodi:end="7.8614686"
           sodipodi:start="4.7123891"
           d="m 119.78614,538.65244 c 16.1276,0 29.2016,19.4776 29.2016,43.50443 0,24.02682 -13.07401,43.50441 -29.2016,43.50441 -0.0729,0 -0.14575,-4e-4 -0.21863,-0.001 l 0.21863,-43.5032 z"
           sodipodi:ry="43.504421"
           sodipodi:rx="29.201599"
           sodipodi:cy="582.15686"
           sodipodi:cx="119.78614"
           id="path3606"
           style="fill:#000000;fill-opacity:1"
           sodipodi:type="arc" />
      </g>
      <g
         transform="matrix(0.95528644,0,0,0.98836088,-20.782177,-75.365184)"
         id="g3614">
        <rect
           y="629.237"
           x="312.97617"
           height="80"
           width="40"
           id="rect2820"
           style="fill:#00ff00;fill-rule:evenodd;stroke:#000000;stroke-width:0.70710677px;stroke-linecap:butt;stroke-linejoin:miter;stroke-opacity:1" />
        <path
           sodipodi:type="arc"
           style="fill:#000000;fill-opacity:1"
           id="path3604"
           sodipodi:cx="119.78614"
           sodipodi:cy="582.15686"
           sodipodi:rx="29.201599"
           sodipodi:ry="43.504421"
           d="m 119.78614,538.65244 c 16.1276,0 29.2016,19.4776 29.2016,43.50443 0,24.02682 -13.07401,43.50441 -29.2016,43.50441 -0.0729,0 -0.14575,-4e-4 -0.21863,-0.001 l 0.21863,-43.5032 z"
           sodipodi:start="4.7123891"
           sodipodi:end="7.8614686"
           transform="matrix(1.3443606,0,0,0.47260276,152.50973,374.0724)" />
        <path
           style="fill:#2b0000;stroke:#000000;stroke-width:1px;stroke-linecap:butt;stroke-linejoin:miter;stroke-opacity:1"
           d="m 314.06615,669.16572 0,39.92871 39.92872,0 -39.92872,-39.92871 z"
           id="path3608" />
      </g>
    </g>
    <g
       id="g2891">
      <rect
         inkscape:export-ydpi="33.861099"
         inkscape:export-xdpi="33.861099"
         inkscape:export-filename="/home/jennings/development/qxrd/images/qxrd-icon2.png"
         ry="10"
         rx="10"
         y="445.08817"
         x="183.98218"
         height="170"
         width="170"
         id="rect3723"
         style="fill:#000000;fill-opacity:1" />
      <image
         inkscape:export-ydpi="33.861099"
         inkscape:export-xdpi="33.861099"
         inkscape:export-filename="/home/jennings/development/qxrd/images/qxrd-icon2.png"
         xlink:href="file:///home/jennings/development/qxrd/images/qxrd-screenshot-crop.png"
         width="140"
         height="70"
         id="image3719"
         x="198.98218"
         y="455.72772" />
      <g
         inkscape:export-filename="/home/jennings/development/qxrd/images/qxrd-icon2.png"
         inkscape:export-ydpi="33.861099"
         inkscape:export-xdpi="33.861099"
         transform="matrix(0.7394708,0,0,1.5101704,111.74918,86.6493)"
         id="flowRoot2835"
         style="font-size:40px;font-style:normal;font-weight:normal;fill:#00ff00;fill-opacity:1;stroke:none;font-family:Bitstream Vera Sans">
        <path
           id="path2844"
           style="font-size:64px;font-weight:bold;fill:#00ff00;-inkscape-font-specification:Bitstream Vera Sans Bold"
           d="m 139.46875,345.0107 -0.9375,0 c -7.68752,0 -13.66668,-2.125 -17.9375,-6.375 -4.27084,-4.24999 -6.40625,-10.16665 -6.40625,-17.75 0,-7.56247 2.12499,-13.48955 6.375,-17.78125 4.27082,-4.29163 10.14581,-6.43746 17.625,-6.4375 7.56247,4e-5 13.44788,2.12504 17.65625,6.375 4.22912,4.25003 6.3437,10.19794 6.34375,17.84375 -5e-5,5.25001 -1.12505,9.77084 -3.375,13.5625 -2.22921,3.79167 -5.44796,6.64583 -9.65625,8.5625 l 9.40625,10.5 -11.46875,0 -7.625,-8.5 m -1.28125,-39.625 c -3.66669,4e-5 -6.51044,1.3542 -8.53125,4.0625 -2.02085,2.70836 -3.03127,6.52086 -3.03125,11.4375 -2e-5,5.00001 0.98957,8.83334 2.96875,11.5 1.97915,2.64584 4.84373,3.96875 8.59375,3.96875 3.68747,0 6.54163,-1.35416 8.5625,-4.0625 2.0208,-2.70832 3.03121,-6.5104 3.03125,-11.40625 -4e-5,-4.91664 -1.01045,-8.72914 -3.03125,-11.4375 -2.02087,-2.7083 -4.87503,-4.06246 -8.5625,-4.0625" />
        <path
           id="path2846"
           style="font-size:64px;font-weight:bold;fill:#00ff00;-inkscape-font-specification:Bitstream Vera Sans Bold"
           d="m 197.25,320.35445 16.1875,23.8125 -12.53125,0 L 190,328.22945 l -10.8125,15.9375 -12.59375,0 16.1875,-23.8125 -15.5625,-22.84375 12.5625,0 10.21875,15.03125 10.1875,-15.03125 12.625,0 -15.5625,22.84375" />
        <path
           id="path2848"
           style="font-size:64px;font-weight:bold;fill:#00ff00;-inkscape-font-specification:Bitstream Vera Sans Bold"
           d="m 237.71875,318.1982 c 2.52081,2e-5 4.32289,-0.46873 5.40625,-1.40625 1.10414,-0.93748 1.65622,-2.47914 1.65625,-4.625 -3e-5,-2.12497 -0.55211,-3.6458 -1.65625,-4.5625 -1.08336,-0.91663 -2.88544,-1.37497 -5.40625,-1.375 l -5.0625,0 0,11.96875 5.0625,0 m -5.0625,8.3125 0,17.65625 -12.03125,0 0,-46.65625 18.375,0 c 6.1458,4e-5 10.6458,1.03129 13.5,3.09375 2.87496,2.06254 4.31246,5.32295 4.3125,9.78125 -4e-5,3.08336 -0.75004,5.61461 -2.25,7.59375 -1.47921,1.97919 -3.71879,3.43752 -6.71875,4.375 1.6458,0.37502 3.11455,1.22918 4.40625,2.5625 1.31246,1.31251 2.63538,3.31251 3.96875,6 l 6.53125,13.25 -12.8125,0 -5.6875,-11.59375 c -1.14586,-2.33332 -2.31253,-3.92707 -3.5,-4.78125 -1.16669,-0.85415 -2.72919,-1.28124 -4.6875,-1.28125 l -3.40625,0" />
        <path
           id="path2850"
           style="font-size:64px;font-weight:bold;fill:#00ff00;-inkscape-font-specification:Bitstream Vera Sans Bold"
           d="m 281.90625,306.60445 0,28.46875 4.3125,0 c 4.91664,1e-5 8.66664,-1.21874 11.25,-3.65625 2.60413,-2.43749 3.90621,-5.97915 3.90625,-10.625 -4e-5,-4.62498 -1.2917,-8.14581 -3.875,-10.5625 -2.58336,-2.41663 -6.34378,-3.62497 -11.28125,-3.625 l -4.3125,0 m -12.03125,-9.09375 12.6875,0 c 7.08331,4e-5 12.35414,0.51046 15.8125,1.53125 3.47913,1.00004 6.45829,2.70837 8.9375,5.125 2.18745,2.1042 3.81245,4.53128 4.875,7.28125 1.06245,2.75003 1.5937,5.86461 1.59375,9.34375 -5e-5,3.52085 -0.5313,6.66668 -1.59375,9.4375 -1.06255,2.75001 -2.68755,5.17709 -4.875,7.28125 -2.50004,2.41667 -5.50004,4.13542 -9,5.15625 -3.50003,1 -8.75003,1.5 -15.75,1.5 l -12.6875,0 0,-46.65625" />
      </g>
    </g>
  </g>
</svg>
